<?xml version="1.0" encoding="UTF-8" standalone="no"?>
<!DOCTYPE svg PUBLIC "-//W3C//DTD SVG 1.1//EN"
 "http://www.w3.org/Graphics/SVG/1.1/DTD/svg11.dtd">
<!-- Generated by graphviz version 2.44.1 (20200629.0846)
 -->
<!-- Title: test Pages: 1 -->
<!--zoomable 135 -->
<svg id="main" version="1.1" xmlns="http://www.w3.org/2000/svg" xmlns:xlink="http://www.w3.org/1999/xlink" xml:space="preserve" onload="init(evt)">
<style type="text/css"><![CDATA[
.edge:hover path { stroke: red; }
.edge:hover polygon { stroke: red; fill: red; }
]]></style>
<script type="text/javascript"><![CDATA[
var edges = document.getElementsByTagName('g');
if (edges && edges.length) {
  for (var i=0;i<edges.length;i++) {
    if (edges[i].id.substr(0,4)=='edge') {
      edges[i].setAttribute('class','edge');
    }
  }
}
]]></script>
        <defs>
                <circle id="rim" cx="0" cy="0" r="7"/>
                <circle id="rim2" cx="0" cy="0" r="3.5"/>
                <g id="zoomPlus">
                        <use xlink:href="#rim" fill="#404040">
                                <set attributeName="fill" to="#808080" begin="zoomplus.mouseover" end="zoomplus.mouseout"/>
                        </use>
                        <path d="M-4,0h8M0,-4v8" fill="none" stroke="white" stroke-width="1.5" pointer-events="none"/>
                </g>
                <g id="zoomMin">
                        <use xlink:href="#rim" fill="#404040">
                                <set attributeName="fill" to="#808080" begin="zoomminus.mouseover" end="zoomminus.mouseout"/>
                        </use>
                        <path d="M-4,0h8" fill="none" stroke="white" stroke-width="1.5" pointer-events="none"/>
                </g>
                <g id="dirArrow">
                        <path fill="none" stroke="white" stroke-width="1.5" d="M0,-3.0v7 M-2.5,-0.5L0,-3.0L2.5,-0.5"/>
                </g>
               <g id="resetDef">
                       <use xlink:href="#rim2" fill="#404040">
                               <set attributeName="fill" to="#808080" begin="reset.mouseover" end="reset.mouseout"/>
                       </use>
               </g>
        </defs>

<script type="text/javascript">
var viewWidth = 507;
var viewHeight = 135;
var sectionId = 'dynsection-6';
</script>
<script xlink:href="../../svgpan.js"/>
<svg id="graph" class="graph">
<g id="viewport">
<title>test</title>
<polygon fill="white" stroke="transparent" points="-4,4 -4,-131.21 503,-131.21 503,4 -4,4"/>
<!-- Node1 -->
<g id="node1" class="node">
<title>Node1</title>
<g id="a_node1"><a xlink:title=" ">
<polygon fill="#bfbfbf" stroke="black" points="0,-50.71 0,-69.71 33,-69.71 33,-50.71 0,-50.71"/>
<text text-anchor="middle" x="16.5" y="-57.71" font-family="Helvetica,sans-Serif" font-size="10.00">test</text>
</a>
</g>
</g>
<!-- Node2 -->
<g id="node2" class="node">
<title>Node2</title>
<g id="a_node2"><a xlink:href="../../d5/d33/gram__schmidt_8cpp.html#a8971006afb1ec214c03ab6ff90913120" target="_top" xlink:title="for std::array">
<polygon fill="white" stroke="black" points="278,-107.71 278,-126.71 346,-126.71 346,-107.71 278,-107.71"/>
<text text-anchor="middle" x="312" y="-114.71" font-family="Helvetica,sans-Serif" font-size="10.00">dot_product</text>
</a>
</g>
</g>
<!-- Node1&#45;&gt;Node2 -->
<g id="edge1" class="edge">
<title>Node1&#45;&gt;Node2</title>
<path fill="none" stroke="midnightblue" d="M33.23,-66.16C43.41,-69.97 56.95,-74.98 69,-79.21 119.39,-96.9 130.28,-108.65 183,-117.21 210.93,-121.74 242.73,-121.77 267.65,-120.64"/>
<polygon fill="midnightblue" stroke="midnightblue" points="268.08,-124.13 277.88,-120.1 267.71,-117.14 268.08,-124.13"/>
</g>
<!-- Node4 -->
<g id="node4" class="node">
<title>Node4</title>
<g id="a_node4"><a target="_blank" xlink:href="http://en.cppreference.com/w/cpp/io/manip/endl.html#" target="_top" xlink:title=" ">
<polygon fill="white" stroke="black" points="285,-12.71 285,-31.71 339,-31.71 339,-12.71 285,-12.71"/>
<text text-anchor="middle" x="312" y="-19.71" font-family="Helvetica,sans-Serif" font-size="10.00">std::endl</text>
</a>
</g>
</g>
<!-- Node1&#45;&gt;Node4 -->
<g id="edge3" class="edge">
<title>Node1&#45;&gt;Node4</title>
<path fill="none" stroke="midnightblue" d="M33.23,-54.26C43.41,-50.45 56.95,-45.44 69,-41.21 143.28,-15.13 163.99,7.34 242,-3.21 252.92,-4.68 264.55,-7.42 275.09,-10.36"/>
<polygon fill="midnightblue" stroke="midnightblue" points="274.22,-13.75 284.81,-13.21 276.2,-7.04 274.22,-13.75"/>
</g>
<!-- Node5 -->
<g id="node5" class="node">
<title>Node5</title>
<g id="a_node5"><a xlink:href="../../d5/d33/gram__schmidt_8cpp.html#a88d43d509428c34b5ab951a777de7b31" target="_top" xlink:title=" ">
<polygon fill="white" stroke="black" points="69,-50.71 69,-69.71 147,-69.71 147,-50.71 69,-50.71"/>
<text text-anchor="middle" x="108" y="-57.71" font-family="Helvetica,sans-Serif" font-size="10.00">gram_schmidt</text>
</a>
</g>
</g>
<!-- Node1&#45;&gt;Node5 -->
<g id="edge4" class="edge">
<title>Node1&#45;&gt;Node5</title>
<path fill="none" stroke="midnightblue" d="M33.09,-60.21C40.37,-60.21 49.48,-60.21 58.79,-60.21"/>
<polygon fill="midnightblue" stroke="midnightblue" points="58.89,-63.71 68.89,-60.21 58.89,-56.71 58.89,-63.71"/>
</g>
<!-- Node3 -->
<g id="node3" class="node">
<title>Node3</title>
<g id="a_node3"><a xlink:href="../../d8/d77/namespacemachine__learning.html#a5305cc18d11943d3dc0d66e70d7e9c44" target="_top" xlink:title=" ">
<polygon fill="white" stroke="black" points="382,-107.71 382,-126.71 499,-126.71 499,-107.71 382,-107.71"/>
<text text-anchor="middle" x="440.5" y="-114.71" font-family="Helvetica,sans-Serif" font-size="10.00">machine_learning::sum</text>
</a>
</g>
</g>
<!-- Node2&#45;&gt;Node3 -->
<g id="edge2" class="edge">
<title>Node2&#45;&gt;Node3</title>
<path fill="none" stroke="midnightblue" d="M346.24,-117.21C354.02,-117.21 362.6,-117.21 371.3,-117.21"/>
<polygon fill="midnightblue" stroke="midnightblue" points="371.54,-120.71 381.54,-117.21 371.54,-113.71 371.54,-120.71"/>
</g>
<!-- Node5&#45;&gt;Node4 -->
<g id="edge7" class="edge">
<title>Node5&#45;&gt;Node4</title>
<path fill="none" stroke="midnightblue" d="M147.06,-56.07C173.78,-52.85 210.26,-47.82 242,-41.21 252.88,-38.94 264.57,-35.94 275.19,-33"/>
<polygon fill="midnightblue" stroke="midnightblue" points="276.32,-36.32 284.98,-30.21 274.4,-29.58 276.32,-36.32"/>
</g>
<!-- Node6 -->
<g id="node6" class="node">
<title>Node6</title>
<g id="a_node6"><a xlink:href="../../d5/d33/gram__schmidt_8cpp.html#ae0443c77bd6da61e7db474424e4d5fe4" target="_top" xlink:title=" ">
<polygon fill="white" stroke="black" points="189,-12.71 189,-31.71 236,-31.71 236,-12.71 189,-12.71"/>
<text text-anchor="middle" x="212.5" y="-19.71" font-family="Helvetica,sans-Serif" font-size="10.00">display</text>
</a>
</g>
</g>
<!-- Node5&#45;&gt;Node6 -->
<g id="edge5" class="edge">
<title>Node5&#45;&gt;Node6</title>
<path fill="none" stroke="midnightblue" d="M134.87,-50.62C148.36,-45.62 164.99,-39.45 179.31,-34.14"/>
<polygon fill="midnightblue" stroke="midnightblue" points="180.62,-37.39 188.78,-30.63 178.19,-30.82 180.62,-37.39"/>
</g>
<!-- Node7 -->
<g id="node7" class="node">
<title>Node7</title>
<g id="a_node7"><a xlink:href="../../d5/d33/gram__schmidt_8cpp.html#a0584ced9d027460202fc157f69d00489" target="_top" xlink:title=" ">
<polygon fill="white" stroke="black" points="183,-88.71 183,-107.71 242,-107.71 242,-88.71 183,-88.71"/>
<text text-anchor="middle" x="212.5" y="-95.71" font-family="Helvetica,sans-Serif" font-size="10.00">projection</text>
</a>
</g>
</g>
<!-- Node5&#45;&gt;Node7 -->
<g id="edge8" class="edge">
<title>Node5&#45;&gt;Node7</title>
<path fill="none" stroke="midnightblue" d="M134.87,-69.8C147.37,-74.43 162.57,-80.07 176.12,-85.09"/>
<polygon fill="midnightblue" stroke="midnightblue" points="175.05,-88.43 185.64,-88.62 177.48,-81.87 175.05,-88.43"/>
</g>
<!-- Node6&#45;&gt;Node4 -->
<g id="edge6" class="edge">
<title>Node6&#45;&gt;Node4</title>
<path fill="none" stroke="midnightblue" d="M236.11,-22.21C247.57,-22.21 261.75,-22.21 274.68,-22.21"/>
<polygon fill="midnightblue" stroke="midnightblue" points="274.71,-25.71 284.71,-22.21 274.71,-18.71 274.71,-25.71"/>
</g>
<!-- Node7&#45;&gt;Node2 -->
<g id="edge9" class="edge">
<title>Node7&#45;&gt;Node2</title>
<path fill="none" stroke="midnightblue" d="M242.23,-103.81C250.22,-105.36 259.08,-107.09 267.72,-108.77"/>
<polygon fill="midnightblue" stroke="midnightblue" points="267.19,-112.24 277.68,-110.71 268.53,-105.37 267.19,-112.24"/>
</g>
</g>
</svg>
        <g id="navigator" transform="translate(0 0)" fill="#404254">
                <rect fill="#f2f5e9" fill-opacity="0.5" stroke="#606060" stroke-width=".5" x="0" y="0" width="60" height="60"/>
                <use id="zoomplus" xlink:href="#zoomPlus" x="17" y="9" onmousedown="handleZoom(evt,'in')"/>
                <use id="zoomminus" xlink:href="#zoomMin" x="42" y="9" onmousedown="handleZoom(evt,'out')"/>
                <use id="reset" xlink:href="#resetDef" x="30" y="36" onmousedown="handleReset()"/>
                <g id="arrowUp" xlink:href="#dirArrow" transform="translate(30 24)" onmousedown="handlePan(0,-1)">
                  <use xlink:href="#rim" fill="#404040">
                        <set attributeName="fill" to="#808080" begin="arrowUp.mouseover" end="arrowUp.mouseout"/>
                  </use>
                  <path fill="none" stroke="white" stroke-width="1.5" d="M0,-3.0v7 M-2.5,-0.5L0,-3.0L2.5,-0.5"/>
                </g>
                <g id="arrowRight" xlink:href="#dirArrow" transform="rotate(90) translate(36 -43)" onmousedown="handlePan(1,0)">
                  <use xlink:href="#rim" fill="#404040">
                        <set attributeName="fill" to="#808080" begin="arrowRight.mouseover" end="arrowRight.mouseout"/>
                  </use>
                  <path fill="none" stroke="white" stroke-width="1.5" d="M0,-3.0v7 M-2.5,-0.5L0,-3.0L2.5,-0.5"/>
                </g>
                <g id="arrowDown" xlink:href="#dirArrow" transform="rotate(180) translate(-30 -48)" onmousedown="handlePan(0,1)">
                  <use xlink:href="#rim" fill="#404040">
                        <set attributeName="fill" to="#808080" begin="arrowDown.mouseover" end="arrowDown.mouseout"/>
                  </use>
                  <path fill="none" stroke="white" stroke-width="1.5" d="M0,-3.0v7 M-2.5,-0.5L0,-3.0L2.5,-0.5"/>
                </g>
                <g id="arrowLeft" xlink:href="#dirArrow" transform="rotate(270) translate(-36 17)" onmousedown="handlePan(-1,0)">
                  <use xlink:href="#rim" fill="#404040">
                        <set attributeName="fill" to="#808080" begin="arrowLeft.mouseover" end="arrowLeft.mouseout"/>
                  </use>
                  <path fill="none" stroke="white" stroke-width="1.5" d="M0,-3.0v7 M-2.5,-0.5L0,-3.0L2.5,-0.5"/>
                </g>
        </g>
        <svg viewBox="0 0 15 15" width="100%" height="30px" preserveAspectRatio="xMaxYMin meet">
         <g id="arrow_out" transform="scale(0.3 0.3)">
          <a xlink:href="gram__schmidt_8cpp_aa8dca7b867074164d5f45b0f3851269d_cgraph_org.svg" target="_base">
           <rect id="button" ry="5" rx="5" y="6" x="6" height="38" width="38"
                fill="#f2f5e9" fill-opacity="0.5" stroke="#606060" stroke-width="1.0"/>
           <path id="arrow"
             d="M 11.500037,31.436501 C 11.940474,20.09759 22.043105,11.32322 32.158766,21.979434 L 37.068811,17.246167 C 37.068811,17.246167 37.088388,32 37.088388,32 L 22.160133,31.978069 C 22.160133,31.978069 26.997745,27.140456 26.997745,27.140456 C 18.528582,18.264221 13.291696,25.230495 11.500037,31.436501 z"
             style="fill:#404040;"/>
          </a>
         </g>
        </svg>
</svg>
