<?xml version="1.0" encoding="UTF-8" standalone="no"?>
<!DOCTYPE svg PUBLIC "-//W3C//DTD SVG 1.1//EN"
 "http://www.w3.org/Graphics/SVG/1.1/DTD/svg11.dtd">
<!-- Generated by graphviz version 2.44.1 (20200629.0846)
 -->
<!-- Title: main Pages: 1 -->
<svg width="581pt" height="168pt"
 viewBox="0.00 0.00 581.00 167.64" xmlns="http://www.w3.org/2000/svg" xmlns:xlink="http://www.w3.org/1999/xlink">
<g id="graph0" class="graph" transform="scale(1 1) rotate(0) translate(4 163.64)">
<title>main</title>
<polygon fill="white" stroke="transparent" points="-4,4 -4,-163.64 577,-163.64 577,4 -4,4"/>
<!-- Node1 -->
<g id="node1" class="node">
<title>Node1</title>
<g id="a_node1"><a xlink:title="Main Function.">
<polygon fill="#bfbfbf" stroke="black" points="0,-81.29 0,-100.29 38,-100.29 38,-81.29 0,-81.29"/>
<text text-anchor="middle" x="19" y="-88.29" font-family="Helvetica,sans-Serif" font-size="10.00">main</text>
</a>
</g>
</g>
<!-- Node2 -->
<g id="node2" class="node">
<title>Node2</title>
<g id="a_node2"><a xlink:href="../../d5/d33/gram__schmidt_8cpp.html#a8971006afb1ec214c03ab6ff90913120" target="_top" xlink:title=" ">
<polygon fill="white" stroke="black" points="352,-138.29 352,-157.29 420,-157.29 420,-138.29 352,-138.29"/>
<text text-anchor="middle" x="386" y="-145.29" font-family="Helvetica,sans-Serif" font-size="10.00">dot_product</text>
</a>
</g>
</g>
<!-- Node1&#45;&gt;Node2 -->
<g id="edge1" class="edge">
<title>Node1&#45;&gt;Node2</title>
<path fill="none" stroke="midnightblue" d="M30.76,-100.42C41.12,-109.15 57.58,-121.72 74,-128.79 162.76,-167.02 279.11,-161.15 341.3,-154.11"/>
<polygon fill="midnightblue" stroke="midnightblue" points="342.03,-157.54 351.54,-152.88 341.19,-150.59 342.03,-157.54"/>
</g>
<!-- Node4 -->
<g id="node4" class="node">
<title>Node4</title>
<g id="a_node4"><a target="_blank" xlink:href="http://en.cppreference.com/w/cpp/io/manip/endl.html#" target="_top" xlink:title=" ">
<polygon fill="white" stroke="black" points="359,-5.29 359,-24.29 413,-24.29 413,-5.29 359,-5.29"/>
<text text-anchor="middle" x="386" y="-12.29" font-family="Helvetica,sans-Serif" font-size="10.00">std::endl</text>
</a>
</g>
</g>
<!-- Node1&#45;&gt;Node4 -->
<g id="edge3" class="edge">
<title>Node1&#45;&gt;Node4</title>
<path fill="none" stroke="midnightblue" d="M38.11,-81.51C76.95,-62.17 171.68,-18.12 257,-2.79 287.7,2.72 323.02,-1.36 348.78,-6.2"/>
<polygon fill="midnightblue" stroke="midnightblue" points="348.35,-9.69 358.84,-8.23 349.73,-2.82 348.35,-9.69"/>
</g>
<!-- Node5 -->
<g id="node5" class="node">
<title>Node5</title>
<g id="a_node5"><a xlink:href="../../d5/d33/gram__schmidt_8cpp.html#a88d43d509428c34b5ab951a777de7b31" target="_top" xlink:title=" ">
<polygon fill="white" stroke="black" points="143,-62.29 143,-81.29 221,-81.29 221,-62.29 143,-62.29"/>
<text text-anchor="middle" x="182" y="-69.29" font-family="Helvetica,sans-Serif" font-size="10.00">gram_schmidt</text>
</a>
</g>
</g>
<!-- Node1&#45;&gt;Node5 -->
<g id="edge4" class="edge">
<title>Node1&#45;&gt;Node5</title>
<path fill="none" stroke="midnightblue" d="M38.16,-88.65C60.94,-85.96 100.88,-81.25 132.75,-77.49"/>
<polygon fill="midnightblue" stroke="midnightblue" points="133.26,-80.95 142.78,-76.3 132.44,-74 133.26,-80.95"/>
</g>
<!-- Node8 -->
<g id="node8" class="node">
<title>Node8</title>
<g id="a_node8"><a xlink:href="../../d5/d33/gram__schmidt_8cpp.html#aa8dca7b867074164d5f45b0f3851269d" target="_top" xlink:title=" ">
<polygon fill="white" stroke="black" points="74,-100.29 74,-119.29 107,-119.29 107,-100.29 74,-100.29"/>
<text text-anchor="middle" x="90.5" y="-107.29" font-family="Helvetica,sans-Serif" font-size="10.00">test</text>
</a>
</g>
</g>
<!-- Node1&#45;&gt;Node8 -->
<g id="edge10" class="edge">
<title>Node1&#45;&gt;Node8</title>
<path fill="none" stroke="midnightblue" d="M38.26,-95.78C46.15,-97.94 55.52,-100.5 64.07,-102.84"/>
<polygon fill="midnightblue" stroke="midnightblue" points="63.38,-106.28 73.95,-105.54 65.23,-99.53 63.38,-106.28"/>
</g>
<!-- Node3 -->
<g id="node3" class="node">
<title>Node3</title>
<g id="a_node3"><a xlink:href="../../d8/d77/namespacemachine__learning.html#a5305cc18d11943d3dc0d66e70d7e9c44" target="_top" xlink:title=" ">
<polygon fill="white" stroke="black" points="456,-138.29 456,-157.29 573,-157.29 573,-138.29 456,-138.29"/>
<text text-anchor="middle" x="514.5" y="-145.29" font-family="Helvetica,sans-Serif" font-size="10.00">machine_learning::sum</text>
</a>
</g>
</g>
<!-- Node2&#45;&gt;Node3 -->
<g id="edge2" class="edge">
<title>Node2&#45;&gt;Node3</title>
<path fill="none" stroke="midnightblue" d="M420.24,-147.79C428.02,-147.79 436.6,-147.79 445.3,-147.79"/>
<polygon fill="midnightblue" stroke="midnightblue" points="445.54,-151.29 455.54,-147.79 445.54,-144.29 445.54,-151.29"/>
</g>
<!-- Node5&#45;&gt;Node4 -->
<g id="edge7" class="edge">
<title>Node5&#45;&gt;Node4</title>
<path fill="none" stroke="midnightblue" d="M191.39,-62.19C204.01,-48.56 229.37,-24.2 257,-14.79 286.58,-4.72 322.29,-5.71 348.46,-8.65"/>
<polygon fill="midnightblue" stroke="midnightblue" points="348.34,-12.17 358.7,-9.96 349.22,-5.22 348.34,-12.17"/>
</g>
<!-- Node6 -->
<g id="node6" class="node">
<title>Node6</title>
<g id="a_node6"><a xlink:href="../../d5/d33/gram__schmidt_8cpp.html#ae0443c77bd6da61e7db474424e4d5fe4" target="_top" xlink:title=" ">
<polygon fill="white" stroke="black" points="263,-24.29 263,-43.29 310,-43.29 310,-24.29 263,-24.29"/>
<text text-anchor="middle" x="286.5" y="-31.29" font-family="Helvetica,sans-Serif" font-size="10.00">display</text>
</a>
</g>
</g>
<!-- Node5&#45;&gt;Node6 -->
<g id="edge5" class="edge">
<title>Node5&#45;&gt;Node6</title>
<path fill="none" stroke="midnightblue" d="M208.87,-62.2C222.36,-57.2 238.99,-51.04 253.31,-45.73"/>
<polygon fill="midnightblue" stroke="midnightblue" points="254.62,-48.97 262.78,-42.21 252.19,-42.41 254.62,-48.97"/>
</g>
<!-- Node7 -->
<g id="node7" class="node">
<title>Node7</title>
<g id="a_node7"><a xlink:href="../../d5/d33/gram__schmidt_8cpp.html#a0584ced9d027460202fc157f69d00489" target="_top" xlink:title=" ">
<polygon fill="white" stroke="black" points="257,-62.29 257,-81.29 316,-81.29 316,-62.29 257,-62.29"/>
<text text-anchor="middle" x="286.5" y="-69.29" font-family="Helvetica,sans-Serif" font-size="10.00">projection</text>
</a>
</g>
</g>
<!-- Node5&#45;&gt;Node7 -->
<g id="edge8" class="edge">
<title>Node5&#45;&gt;Node7</title>
<path fill="none" stroke="midnightblue" d="M221.17,-71.79C229.49,-71.79 238.31,-71.79 246.66,-71.79"/>
<polygon fill="midnightblue" stroke="midnightblue" points="246.91,-75.29 256.91,-71.79 246.91,-68.29 246.91,-75.29"/>
</g>
<!-- Node6&#45;&gt;Node4 -->
<g id="edge6" class="edge">
<title>Node6&#45;&gt;Node4</title>
<path fill="none" stroke="midnightblue" d="M310.11,-29.39C321.57,-27.15 335.75,-24.39 348.68,-21.87"/>
<polygon fill="midnightblue" stroke="midnightblue" points="349.57,-25.26 358.71,-19.92 348.23,-18.39 349.57,-25.26"/>
</g>
<!-- Node7&#45;&gt;Node2 -->
<g id="edge9" class="edge">
<title>Node7&#45;&gt;Node2</title>
<path fill="none" stroke="midnightblue" d="M299.85,-81.42C316.19,-94.15 345.19,-116.76 364.76,-132.01"/>
<polygon fill="midnightblue" stroke="midnightblue" points="362.71,-134.86 372.75,-138.25 367.02,-129.34 362.71,-134.86"/>
</g>
<!-- Node8&#45;&gt;Node2 -->
<g id="edge11" class="edge">
<title>Node8&#45;&gt;Node2</title>
<path fill="none" stroke="midnightblue" d="M107.12,-114.77C117.25,-117.81 130.79,-121.54 143,-123.79 211.86,-136.47 293.05,-142.8 341.71,-145.68"/>
<polygon fill="midnightblue" stroke="midnightblue" points="341.69,-149.18 351.88,-146.26 342.09,-142.19 341.69,-149.18"/>
</g>
<!-- Node8&#45;&gt;Node4 -->
<g id="edge12" class="edge">
<title>Node8&#45;&gt;Node4</title>
<path fill="none" stroke="midnightblue" d="M107.23,-112.21C145.36,-117.31 244.82,-125.97 316,-90.79 341.85,-78.02 362.59,-51.03 374.35,-32.9"/>
<polygon fill="midnightblue" stroke="midnightblue" points="377.36,-34.69 379.66,-24.35 371.41,-31 377.36,-34.69"/>
</g>
<!-- Node8&#45;&gt;Node5 -->
<g id="edge13" class="edge">
<title>Node8&#45;&gt;Node5</title>
<path fill="none" stroke="midnightblue" d="M107.09,-103.17C118.65,-98.27 134.8,-91.41 149.06,-85.35"/>
<polygon fill="midnightblue" stroke="midnightblue" points="150.71,-88.46 158.55,-81.33 147.97,-82.01 150.71,-88.46"/>
</g>
</g>
</svg>
