<?xml version="1.0" encoding="UTF-8" standalone="no"?>
<!DOCTYPE svg PUBLIC "-//W3C//DTD SVG 1.1//EN"
 "http://www.w3.org/Graphics/SVG/1.1/DTD/svg11.dtd">
<!-- Generated by graphviz version 2.44.1 (20200629.0846)
 -->
<!-- Title: gram_schmidt Pages: 1 -->
<svg width="438pt" height="104pt"
 viewBox="0.00 0.00 438.00 104.00" xmlns="http://www.w3.org/2000/svg" xmlns:xlink="http://www.w3.org/1999/xlink">
<g id="graph0" class="graph" transform="scale(1 1) rotate(0) translate(4 100)">
<title>gram_schmidt</title>
<polygon fill="white" stroke="transparent" points="-4,4 -4,-100 434,-100 434,4 -4,4"/>
<!-- Node1 -->
<g id="node1" class="node">
<title>Node1</title>
<g id="a_node1"><a xlink:title=" ">
<polygon fill="#bfbfbf" stroke="black" points="0,-38.5 0,-57.5 78,-57.5 78,-38.5 0,-38.5"/>
<text text-anchor="middle" x="39" y="-45.5" font-family="Helvetica,sans-Serif" font-size="10.00">gram_schmidt</text>
</a>
</g>
</g>
<!-- Node2 -->
<g id="node2" class="node">
<title>Node2</title>
<g id="a_node2"><a xlink:href="../../d5/d33/gram__schmidt_8cpp.html#ae0443c77bd6da61e7db474424e4d5fe4" target="_top" xlink:title=" ">
<polygon fill="white" stroke="black" points="120,-76.5 120,-95.5 167,-95.5 167,-76.5 120,-76.5"/>
<text text-anchor="middle" x="143.5" y="-83.5" font-family="Helvetica,sans-Serif" font-size="10.00">display</text>
</a>
</g>
</g>
<!-- Node1&#45;&gt;Node2 -->
<g id="edge1" class="edge">
<title>Node1&#45;&gt;Node2</title>
<path fill="none" stroke="midnightblue" d="M65.87,-57.59C79.36,-62.59 95.99,-68.76 110.31,-74.07"/>
<polygon fill="midnightblue" stroke="midnightblue" points="109.19,-77.38 119.78,-77.58 111.62,-70.82 109.19,-77.38"/>
</g>
<!-- Node3 -->
<g id="node3" class="node">
<title>Node3</title>
<g id="a_node3"><a target="_blank" xlink:href="http://en.cppreference.com/w/cpp/io/manip/endl.html#" target="_top" xlink:title=" ">
<polygon fill="white" stroke="black" points="216,-57.5 216,-76.5 270,-76.5 270,-57.5 216,-57.5"/>
<text text-anchor="middle" x="243" y="-64.5" font-family="Helvetica,sans-Serif" font-size="10.00">std::endl</text>
</a>
</g>
</g>
<!-- Node1&#45;&gt;Node3 -->
<g id="edge3" class="edge">
<title>Node1&#45;&gt;Node3</title>
<path fill="none" stroke="midnightblue" d="M78.47,-51.62C115.14,-55.07 169.95,-60.22 205.84,-63.6"/>
<polygon fill="midnightblue" stroke="midnightblue" points="205.59,-67.09 215.88,-64.54 206.25,-60.12 205.59,-67.09"/>
</g>
<!-- Node4 -->
<g id="node4" class="node">
<title>Node4</title>
<g id="a_node4"><a xlink:href="../../d5/d33/gram__schmidt_8cpp.html#a0584ced9d027460202fc157f69d00489" target="_top" xlink:title=" ">
<polygon fill="white" stroke="black" points="114,-0.5 114,-19.5 173,-19.5 173,-0.5 114,-0.5"/>
<text text-anchor="middle" x="143.5" y="-7.5" font-family="Helvetica,sans-Serif" font-size="10.00">projection</text>
</a>
</g>
</g>
<!-- Node1&#45;&gt;Node4 -->
<g id="edge4" class="edge">
<title>Node1&#45;&gt;Node4</title>
<path fill="none" stroke="midnightblue" d="M65.87,-38.41C78.37,-33.78 93.57,-28.14 107.12,-23.11"/>
<polygon fill="midnightblue" stroke="midnightblue" points="108.48,-26.34 116.64,-19.59 106.05,-19.78 108.48,-26.34"/>
</g>
<!-- Node2&#45;&gt;Node3 -->
<g id="edge2" class="edge">
<title>Node2&#45;&gt;Node3</title>
<path fill="none" stroke="midnightblue" d="M167.11,-81.59C178.57,-79.36 192.75,-76.6 205.68,-74.08"/>
<polygon fill="midnightblue" stroke="midnightblue" points="206.57,-77.47 215.71,-72.12 205.23,-70.6 206.57,-77.47"/>
</g>
<!-- Node5 -->
<g id="node5" class="node">
<title>Node5</title>
<g id="a_node5"><a xlink:href="../../d5/d33/gram__schmidt_8cpp.html#a8971006afb1ec214c03ab6ff90913120" target="_top" xlink:title=" ">
<polygon fill="white" stroke="black" points="209,-0.5 209,-19.5 277,-19.5 277,-0.5 209,-0.5"/>
<text text-anchor="middle" x="243" y="-7.5" font-family="Helvetica,sans-Serif" font-size="10.00">dot_product</text>
</a>
</g>
</g>
<!-- Node4&#45;&gt;Node5 -->
<g id="edge5" class="edge">
<title>Node4&#45;&gt;Node5</title>
<path fill="none" stroke="midnightblue" d="M173.23,-10C181.13,-10 189.89,-10 198.43,-10"/>
<polygon fill="midnightblue" stroke="midnightblue" points="198.68,-13.5 208.68,-10 198.68,-6.5 198.68,-13.5"/>
</g>
<!-- Node6 -->
<g id="node6" class="node">
<title>Node6</title>
<g id="a_node6"><a xlink:href="../../d8/d77/namespacemachine__learning.html#a5305cc18d11943d3dc0d66e70d7e9c44" target="_top" xlink:title=" ">
<polygon fill="white" stroke="black" points="313,-0.5 313,-19.5 430,-19.5 430,-0.5 313,-0.5"/>
<text text-anchor="middle" x="371.5" y="-7.5" font-family="Helvetica,sans-Serif" font-size="10.00">machine_learning::sum</text>
</a>
</g>
</g>
<!-- Node5&#45;&gt;Node6 -->
<g id="edge6" class="edge">
<title>Node5&#45;&gt;Node6</title>
<path fill="none" stroke="midnightblue" d="M277.24,-10C285.02,-10 293.6,-10 302.3,-10"/>
<polygon fill="midnightblue" stroke="midnightblue" points="302.54,-13.5 312.54,-10 302.54,-6.5 302.54,-13.5"/>
</g>
</g>
</svg>
